<mxfile host="65bd71144e">
    <diagram id="BVNk6OofR7S6BzBQH87I" name="Page-1">
        <mxGraphModel dx="1249" dy="1794" grid="1" gridSize="10" guides="1" tooltips="1" connect="1" arrows="1" fold="1" page="1" pageScale="1" pageWidth="1100" pageHeight="850" math="0" shadow="0">
            <root>
                <mxCell id="0"/>
                <mxCell id="1" parent="0"/>
                <mxCell id="-CwqB0fKNZ0cKDrPMlJl-1" style="edgeStyle=orthogonalEdgeStyle;curved=1;orthogonalLoop=1;jettySize=auto;html=1;startArrow=classic;startFill=1;endArrow=none;endFill=0;strokeWidth=2;" parent="1" source="-CwqB0fKNZ0cKDrPMlJl-3" edge="1">
                    <mxGeometry relative="1" as="geometry">
                        <mxPoint x="1210" y="-321" as="targetPoint"/>
                    </mxGeometry>
                </mxCell>
                <mxCell id="-CwqB0fKNZ0cKDrPMlJl-2" style="edgeStyle=none;rounded=1;orthogonalLoop=1;jettySize=auto;html=1;entryX=0;entryY=0.5;entryDx=0;entryDy=0;fontSize=13;startArrow=none;startFill=0;endArrow=classic;endFill=1;strokeColor=#FF0000;strokeWidth=2;" parent="1" source="-CwqB0fKNZ0cKDrPMlJl-3" target="-CwqB0fKNZ0cKDrPMlJl-33" edge="1">
                    <mxGeometry relative="1" as="geometry"/>
                </mxCell>
                <mxCell id="-CwqB0fKNZ0cKDrPMlJl-3" value="Conv2D" style="rounded=0;whiteSpace=wrap;horizontal=0;fontSize=17;rotation=0;fillColor=#fff2cc;strokeColor=#1A1A1A;strokeWidth=2;fontStyle=1" parent="1" vertex="1">
                    <mxGeometry x="1265" y="-391" width="40" height="140" as="geometry"/>
                </mxCell>
                <mxCell id="-CwqB0fKNZ0cKDrPMlJl-4" value="BN" style="rounded=0;whiteSpace=wrap;horizontal=0;fontSize=17;rotation=0;fillColor=#d5e8d4;strokeColor=#1A1A1A;strokeWidth=2;fontStyle=1" parent="1" vertex="1">
                    <mxGeometry x="1490" y="-391" width="40" height="140" as="geometry"/>
                </mxCell>
                <mxCell id="-CwqB0fKNZ0cKDrPMlJl-5" style="edgeStyle=orthogonalEdgeStyle;curved=1;orthogonalLoop=1;jettySize=auto;html=1;entryX=0;entryY=0.5;entryDx=0;entryDy=0;startArrow=none;startFill=0;endArrow=classic;endFill=1;strokeWidth=2;" parent="1" source="-CwqB0fKNZ0cKDrPMlJl-6" edge="1">
                    <mxGeometry relative="1" as="geometry">
                        <mxPoint x="1638" y="-321" as="targetPoint"/>
                        <Array as="points"/>
                    </mxGeometry>
                </mxCell>
                <mxCell id="-CwqB0fKNZ0cKDrPMlJl-6" value="ReLU" style="rounded=0;whiteSpace=wrap;html=1;horizontal=0;fontSize=17;rotation=0;fillColor=#f8cecc;strokeColor=#1A1A1A;strokeWidth=2;fontStyle=1" parent="1" vertex="1">
                    <mxGeometry x="1550" y="-391" width="40" height="140" as="geometry"/>
                </mxCell>
                <mxCell id="-CwqB0fKNZ0cKDrPMlJl-7" style="edgeStyle=orthogonalEdgeStyle;curved=1;orthogonalLoop=1;jettySize=auto;html=1;entryX=0;entryY=0.5;entryDx=0;entryDy=0;startArrow=none;startFill=0;endArrow=classic;endFill=1;strokeWidth=2;" parent="1" source="-CwqB0fKNZ0cKDrPMlJl-4" target="-CwqB0fKNZ0cKDrPMlJl-6" edge="1">
                    <mxGeometry relative="1" as="geometry"/>
                </mxCell>
                <mxCell id="-CwqB0fKNZ0cKDrPMlJl-8" value="" style="shape=cube;whiteSpace=wrap;html=1;boundedLbl=1;backgroundOutline=1;darkOpacity=0.05;darkOpacity2=0.1;size=27;rotation=0;fillColor=#67AB9F;strokeColor=#000000;strokeWidth=2;" parent="1" vertex="1">
                    <mxGeometry x="1121" y="-352" width="80" height="74" as="geometry"/>
                </mxCell>
                <mxCell id="-CwqB0fKNZ0cKDrPMlJl-9" style="edgeStyle=orthogonalEdgeStyle;curved=1;orthogonalLoop=1;jettySize=auto;html=1;startArrow=classic;startFill=1;endArrow=none;endFill=0;strokeWidth=2;" parent="1" source="-CwqB0fKNZ0cKDrPMlJl-11" edge="1">
                    <mxGeometry relative="1" as="geometry">
                        <mxPoint x="1732.0000000000005" y="-321" as="targetPoint"/>
                    </mxGeometry>
                </mxCell>
                <mxCell id="-CwqB0fKNZ0cKDrPMlJl-10" style="edgeStyle=orthogonalEdgeStyle;rounded=1;orthogonalLoop=1;jettySize=auto;html=1;dashed=1;fontSize=13;startArrow=none;startFill=0;endArrow=classic;endFill=1;strokeColor=#FF0000;strokeWidth=2;fontColor=#FF0000;" parent="1" source="-CwqB0fKNZ0cKDrPMlJl-11" edge="1">
                    <mxGeometry relative="1" as="geometry">
                        <mxPoint x="1860" y="-160" as="targetPoint"/>
                    </mxGeometry>
                </mxCell>
                <mxCell id="-CwqB0fKNZ0cKDrPMlJl-11" value="Conv2D" style="rounded=0;whiteSpace=wrap;horizontal=0;fontSize=17;rotation=0;fillColor=#fff2cc;strokeColor=#1A1A1A;strokeWidth=2;fontStyle=1" parent="1" vertex="1">
                    <mxGeometry x="1788" y="-391" width="40" height="140" as="geometry"/>
                </mxCell>
                <mxCell id="-CwqB0fKNZ0cKDrPMlJl-12" value="BN" style="rounded=0;whiteSpace=wrap;horizontal=0;fontSize=17;rotation=0;fillColor=#d5e8d4;strokeColor=#1A1A1A;strokeWidth=2;fontStyle=1" parent="1" vertex="1">
                    <mxGeometry x="1900" y="-391" width="40" height="140" as="geometry"/>
                </mxCell>
                <mxCell id="-CwqB0fKNZ0cKDrPMlJl-13" style="edgeStyle=orthogonalEdgeStyle;curved=1;orthogonalLoop=1;jettySize=auto;html=1;startArrow=none;startFill=0;endArrow=classic;endFill=1;strokeWidth=2;dashed=1;" parent="1" source="-CwqB0fKNZ0cKDrPMlJl-14" edge="1">
                    <mxGeometry relative="1" as="geometry">
                        <mxPoint x="2060" y="-321" as="targetPoint"/>
                        <Array as="points"/>
                    </mxGeometry>
                </mxCell>
                <mxCell id="-CwqB0fKNZ0cKDrPMlJl-14" value="ReLU" style="rounded=0;whiteSpace=wrap;html=1;horizontal=0;fontSize=17;rotation=0;fillColor=#f8cecc;strokeColor=#1A1A1A;strokeWidth=2;fontStyle=1" parent="1" vertex="1">
                    <mxGeometry x="1960" y="-391" width="40" height="140" as="geometry"/>
                </mxCell>
                <mxCell id="-CwqB0fKNZ0cKDrPMlJl-15" style="edgeStyle=orthogonalEdgeStyle;curved=1;orthogonalLoop=1;jettySize=auto;html=1;entryX=0;entryY=0.5;entryDx=0;entryDy=0;startArrow=none;startFill=0;endArrow=classic;endFill=1;strokeWidth=2;" parent="1" source="-CwqB0fKNZ0cKDrPMlJl-12" target="-CwqB0fKNZ0cKDrPMlJl-14" edge="1">
                    <mxGeometry relative="1" as="geometry"/>
                </mxCell>
                <mxCell id="-CwqB0fKNZ0cKDrPMlJl-16" value="" style="shape=cube;whiteSpace=wrap;html=1;boundedLbl=1;backgroundOutline=1;darkOpacity=0.05;darkOpacity2=0.1;size=27;rotation=0;fillColor=#A9C4EB;strokeColor=#33001A;strokeWidth=2;" parent="1" vertex="1">
                    <mxGeometry x="1642" y="-352" width="80" height="74" as="geometry"/>
                </mxCell>
                <mxCell id="-CwqB0fKNZ0cKDrPMlJl-17" style="edgeStyle=orthogonalEdgeStyle;rounded=1;orthogonalLoop=1;jettySize=auto;html=1;fontSize=13;startArrow=classic;startFill=1;endArrow=none;endFill=0;strokeColor=#000000;strokeWidth=2;dashed=1;" parent="1" source="-CwqB0fKNZ0cKDrPMlJl-19" edge="1">
                    <mxGeometry relative="1" as="geometry">
                        <mxPoint x="840" y="-321" as="targetPoint"/>
                    </mxGeometry>
                </mxCell>
                <mxCell id="-CwqB0fKNZ0cKDrPMlJl-18" style="edgeStyle=orthogonalEdgeStyle;rounded=1;orthogonalLoop=1;jettySize=auto;html=1;dashed=1;fontSize=13;startArrow=none;startFill=0;endArrow=classic;endFill=1;strokeColor=#000000;strokeWidth=2;" parent="1" source="-CwqB0fKNZ0cKDrPMlJl-19" edge="1">
                    <mxGeometry relative="1" as="geometry">
                        <mxPoint x="990" y="-160" as="targetPoint"/>
                    </mxGeometry>
                </mxCell>
                <mxCell id="-CwqB0fKNZ0cKDrPMlJl-19" value="Conv2D" style="rounded=0;whiteSpace=wrap;horizontal=0;fontSize=17;rotation=0;fillColor=#fff2cc;strokeColor=#1A1A1A;strokeWidth=2;fontStyle=1" parent="1" vertex="1">
                    <mxGeometry x="921" y="-391" width="40" height="140" as="geometry"/>
                </mxCell>
                <mxCell id="-CwqB0fKNZ0cKDrPMlJl-20" style="edgeStyle=orthogonalEdgeStyle;rounded=1;orthogonalLoop=1;jettySize=auto;html=1;fontSize=16;startArrow=none;startFill=0;endArrow=classic;endFill=1;strokeColor=#000000;strokeWidth=2;" parent="1" source="-CwqB0fKNZ0cKDrPMlJl-23" edge="1">
                    <mxGeometry relative="1" as="geometry">
                        <mxPoint x="1101" y="-321" as="targetPoint"/>
                    </mxGeometry>
                </mxCell>
                <mxCell id="-CwqB0fKNZ0cKDrPMlJl-21" style="rounded=1;orthogonalLoop=1;jettySize=auto;html=1;fontSize=13;startArrow=none;startFill=0;endArrow=classic;endFill=1;strokeColor=#000000;strokeWidth=2;" parent="1" source="-CwqB0fKNZ0cKDrPMlJl-23" edge="1">
                    <mxGeometry relative="1" as="geometry">
                        <mxPoint x="1120" y="-440" as="targetPoint"/>
                    </mxGeometry>
                </mxCell>
                <mxCell id="-CwqB0fKNZ0cKDrPMlJl-22" style="edgeStyle=none;rounded=1;jumpStyle=arc;orthogonalLoop=1;jettySize=auto;html=1;exitX=1;exitY=0.75;exitDx=0;exitDy=0;entryX=0;entryY=0;entryDx=0;entryDy=0;entryPerimeter=0;fontSize=13;startArrow=none;startFill=0;endArrow=classic;endFill=1;strokeColor=default;strokeWidth=2;" parent="1" source="-CwqB0fKNZ0cKDrPMlJl-23" target="-CwqB0fKNZ0cKDrPMlJl-31" edge="1">
                    <mxGeometry relative="1" as="geometry"/>
                </mxCell>
                <mxCell id="-CwqB0fKNZ0cKDrPMlJl-23" value="ReLU" style="rounded=0;whiteSpace=wrap;html=1;horizontal=0;fontSize=17;rotation=0;fillColor=#f8cecc;strokeColor=#1A1A1A;strokeWidth=2;fontStyle=1" parent="1" vertex="1">
                    <mxGeometry x="1027" y="-391" width="40" height="140" as="geometry"/>
                </mxCell>
                <mxCell id="-CwqB0fKNZ0cKDrPMlJl-24" value="Register Forward Hook&lt;br&gt;CIGAR_LOG()" style="text;html=1;strokeColor=none;fillColor=none;align=left;verticalAlign=middle;whiteSpace=wrap;rounded=0;fontSize=13;fontStyle=1" parent="1" vertex="1">
                    <mxGeometry x="961" y="-137" width="60" height="30" as="geometry"/>
                </mxCell>
                <mxCell id="-CwqB0fKNZ0cKDrPMlJl-25" style="edgeStyle=orthogonalEdgeStyle;curved=1;orthogonalLoop=1;jettySize=auto;html=1;startArrow=none;startFill=0;endArrow=classic;endFill=1;entryX=0;entryY=0.5;entryDx=0;entryDy=0;strokeWidth=2;exitX=1;exitY=0.5;exitDx=0;exitDy=0;strokeColor=#FF0000;" parent="1" source="-CwqB0fKNZ0cKDrPMlJl-11" target="-CwqB0fKNZ0cKDrPMlJl-12" edge="1">
                    <mxGeometry relative="1" as="geometry">
                        <mxPoint x="1880" y="-321" as="targetPoint"/>
                        <mxPoint x="1840" y="-321" as="sourcePoint"/>
                    </mxGeometry>
                </mxCell>
                <mxCell id="-CwqB0fKNZ0cKDrPMlJl-26" style="edgeStyle=orthogonalEdgeStyle;curved=1;orthogonalLoop=1;jettySize=auto;html=1;startArrow=classic;startFill=1;endArrow=none;endFill=0;strokeWidth=2;" parent="1" source="-CwqB0fKNZ0cKDrPMlJl-28" edge="1">
                    <mxGeometry relative="1" as="geometry">
                        <mxPoint x="1210" y="-490" as="targetPoint"/>
                    </mxGeometry>
                </mxCell>
                <mxCell id="-CwqB0fKNZ0cKDrPMlJl-27" style="edgeStyle=none;rounded=1;orthogonalLoop=1;jettySize=auto;html=1;fontSize=13;startArrow=none;startFill=0;endArrow=classic;endFill=1;strokeColor=#FF0000;strokeWidth=2;entryX=0;entryY=0;entryDx=0;entryDy=0;" parent="1" source="-CwqB0fKNZ0cKDrPMlJl-28" target="-CwqB0fKNZ0cKDrPMlJl-33" edge="1">
                    <mxGeometry relative="1" as="geometry">
                        <mxPoint x="1400" y="-400" as="targetPoint"/>
                    </mxGeometry>
                </mxCell>
                <mxCell id="-CwqB0fKNZ0cKDrPMlJl-28" value="Conv2D" style="rounded=0;whiteSpace=wrap;horizontal=0;fontSize=17;rotation=0;fillColor=#fff2cc;strokeColor=#1A1A1A;strokeWidth=2;fontStyle=1" parent="1" vertex="1">
                    <mxGeometry x="1265" y="-560" width="40" height="140" as="geometry"/>
                </mxCell>
                <mxCell id="-CwqB0fKNZ0cKDrPMlJl-29" value="" style="shape=cube;whiteSpace=wrap;html=1;boundedLbl=1;backgroundOutline=1;darkOpacity=0.05;darkOpacity2=0.1;size=27;rotation=0;fillColor=#67AB9F;strokeColor=#000000;strokeWidth=2;" parent="1" vertex="1">
                    <mxGeometry x="1121" y="-521" width="80" height="74" as="geometry"/>
                </mxCell>
                <mxCell id="-CwqB0fKNZ0cKDrPMlJl-30" style="edgeStyle=orthogonalEdgeStyle;curved=1;orthogonalLoop=1;jettySize=auto;html=1;startArrow=classic;startFill=1;endArrow=none;endFill=0;strokeWidth=2;" parent="1" edge="1">
                    <mxGeometry relative="1" as="geometry">
                        <mxPoint x="1210" y="-137.38999999999987" as="targetPoint"/>
                        <mxPoint x="1265" y="-137.38999999999987" as="sourcePoint"/>
                    </mxGeometry>
                </mxCell>
                <mxCell id="-CwqB0fKNZ0cKDrPMlJl-31" value="" style="shape=cube;whiteSpace=wrap;html=1;boundedLbl=1;backgroundOutline=1;darkOpacity=0.05;darkOpacity2=0.1;size=27;rotation=0;fillColor=#67AB9F;strokeColor=#000000;strokeWidth=2;" parent="1" vertex="1">
                    <mxGeometry x="1121" y="-197.07" width="80" height="74" as="geometry"/>
                </mxCell>
                <mxCell id="-CwqB0fKNZ0cKDrPMlJl-32" style="edgeStyle=none;rounded=1;orthogonalLoop=1;jettySize=auto;html=1;entryX=0;entryY=0.5;entryDx=0;entryDy=0;fontSize=13;startArrow=none;startFill=0;endArrow=classic;endFill=1;strokeColor=#000000;strokeWidth=2;" parent="1" source="-CwqB0fKNZ0cKDrPMlJl-33" target="-CwqB0fKNZ0cKDrPMlJl-4" edge="1">
                    <mxGeometry relative="1" as="geometry"/>
                </mxCell>
                <mxCell id="-CwqB0fKNZ0cKDrPMlJl-33" value="Filter Concat" style="rounded=0;whiteSpace=wrap;horizontal=0;fontSize=17;rotation=0;fillColor=#F19C99;strokeColor=#1A1A1A;strokeWidth=2;fontStyle=1" parent="1" vertex="1">
                    <mxGeometry x="1430" y="-391" width="40" height="140" as="geometry"/>
                </mxCell>
                <mxCell id="-CwqB0fKNZ0cKDrPMlJl-34" style="edgeStyle=none;rounded=1;orthogonalLoop=1;jettySize=auto;html=1;fontSize=13;startArrow=none;startFill=0;endArrow=classic;endFill=1;strokeColor=#000000;strokeWidth=2;" parent="1" source="-CwqB0fKNZ0cKDrPMlJl-35" edge="1">
                    <mxGeometry relative="1" as="geometry">
                        <mxPoint x="1430" y="-250" as="targetPoint"/>
                    </mxGeometry>
                </mxCell>
                <mxCell id="-CwqB0fKNZ0cKDrPMlJl-35" value="Pooling" style="rounded=0;whiteSpace=wrap;html=1;horizontal=0;fontSize=17;rotation=0;fillColor=#dae8fc;strokeColor=#000000;strokeWidth=2;fontStyle=1" parent="1" vertex="1">
                    <mxGeometry x="1265" y="-192" width="40" height="140" as="geometry"/>
                </mxCell>
                <mxCell id="-CwqB0fKNZ0cKDrPMlJl-36" style="edgeStyle=orthogonalEdgeStyle;rounded=1;orthogonalLoop=1;jettySize=auto;html=1;fontSize=16;startArrow=none;startFill=0;endArrow=classic;endFill=1;strokeColor=#FF0000;strokeWidth=2;exitX=1;exitY=0.5;exitDx=0;exitDy=0;" parent="1" source="-CwqB0fKNZ0cKDrPMlJl-19" target="-CwqB0fKNZ0cKDrPMlJl-23" edge="1">
                    <mxGeometry relative="1" as="geometry">
                        <mxPoint x="970" y="-321" as="sourcePoint"/>
                    </mxGeometry>
                </mxCell>
                <mxCell id="-CwqB0fKNZ0cKDrPMlJl-37" style="rounded=1;orthogonalLoop=1;jettySize=auto;html=1;dashed=1;fontSize=13;startArrow=none;startFill=0;endArrow=classic;endFill=1;strokeColor=#FF0000;strokeWidth=2;jumpStyle=arc;fontColor=#FF0000;" parent="1" edge="1">
                    <mxGeometry relative="1" as="geometry">
                        <mxPoint x="1340" y="-290" as="targetPoint"/>
                        <mxPoint x="1340" y="-320" as="sourcePoint"/>
                    </mxGeometry>
                </mxCell>
                <mxCell id="-CwqB0fKNZ0cKDrPMlJl-38" value="Register Forward Hook&lt;br&gt;CIGAR_LOG()" style="text;html=1;strokeColor=none;fillColor=none;align=left;verticalAlign=middle;whiteSpace=wrap;rounded=0;fontSize=13;fontStyle=1;fontColor=#FF0000;" parent="1" vertex="1">
                    <mxGeometry x="1310" y="-270" width="60" height="30" as="geometry"/>
                </mxCell>
                <mxCell id="-CwqB0fKNZ0cKDrPMlJl-39" value="Register Forward Hook&lt;br&gt;CIGAR_LOG()" style="text;html=1;strokeColor=none;fillColor=none;align=left;verticalAlign=middle;whiteSpace=wrap;rounded=0;fontSize=13;fontStyle=1;fontColor=#FF0000;" parent="1" vertex="1">
                    <mxGeometry x="1840" y="-137" width="60" height="30" as="geometry"/>
                </mxCell>
                <mxCell id="-CwqB0fKNZ0cKDrPMlJl-40" style="edgeStyle=orthogonalEdgeStyle;rounded=1;orthogonalLoop=1;jettySize=auto;html=1;dashed=1;fontSize=13;startArrow=none;startFill=0;endArrow=classic;endFill=1;strokeColor=#FF0000;strokeWidth=2;fontColor=#FF0000;" parent="1" edge="1">
                    <mxGeometry relative="1" as="geometry">
                        <mxPoint x="990" y="-160" as="targetPoint"/>
                        <mxPoint x="960.9999999999995" y="-321" as="sourcePoint"/>
                    </mxGeometry>
                </mxCell>
                <mxCell id="-CwqB0fKNZ0cKDrPMlJl-41" value="Register Forward Hook&lt;br&gt;CIGAR_LOG()" style="text;html=1;strokeColor=none;fillColor=none;align=left;verticalAlign=middle;whiteSpace=wrap;rounded=0;fontSize=13;fontStyle=1;fontColor=#FF0000;" parent="1" vertex="1">
                    <mxGeometry x="961" y="-137" width="60" height="30" as="geometry"/>
                </mxCell>
                <mxCell id="-CwqB0fKNZ0cKDrPMlJl-42" value="Register Forward Hook&lt;br&gt;CIGAR_LOG()" style="text;html=1;strokeColor=none;fillColor=none;align=left;verticalAlign=middle;whiteSpace=wrap;rounded=0;fontSize=13;fontStyle=1;fontColor=#FF0000;" parent="1" vertex="1">
                    <mxGeometry x="1400" y="-530" width="60" height="30" as="geometry"/>
                </mxCell>
                <mxCell id="-CwqB0fKNZ0cKDrPMlJl-43" style="rounded=1;orthogonalLoop=1;jettySize=auto;html=1;dashed=1;fontSize=13;startArrow=none;startFill=0;endArrow=classic;endFill=1;strokeColor=default;strokeWidth=2;jumpStyle=arc;fontColor=#FF0000;" parent="1" edge="1">
                    <mxGeometry relative="1" as="geometry">
                        <mxPoint x="1400" y="-480" as="targetPoint"/>
                        <mxPoint x="1360" y="-438.07000000000016" as="sourcePoint"/>
                    </mxGeometry>
                </mxCell>
            </root>
        </mxGraphModel>
    </diagram>
</mxfile>